<?xml version="1.0" standalone="no"?>
<!DOCTYPE svg PUBLIC "-//W3C//DTD SVG 20010904//EN"
 "http://www.w3.org/TR/2001/REC-SVG-20010904/DTD/svg10.dtd">
<svg version="1.0" xmlns="http://www.w3.org/2000/svg"
 width="700.000000pt" height="700.000000pt" viewBox="0 0 700.000000 700.000000"
 preserveAspectRatio="xMidYMid meet">
<metadata>
Created by potrace 1.11, written by Peter Selinger 2001-2013
</metadata>
<g transform="translate(0.000000,700.000000) scale(0.100000,-0.100000)"
fill="#000000" stroke="none">
<path d="M2935 5836 c-10 -47 -21 -90 -24 -95 -4 -4 -64 -2 -136 4 -71 7 -164
16 -206 20 l-76 7 -6 -53 c-4 -29 -3 -56 1 -59 8 -7 2802 -174 2807 -168 2 2
-193 23 -433 47 l-437 43 -697 164 c-383 90 -714 166 -736 170 l-38 6 -19 -86z"/>
<path d="M2808 5439 l-43 -52 -127 7 -126 6 -6 -73 c-3 -39 -8 -109 -11 -154
l-6 -82 33 -5 c18 -3 87 -8 152 -11 93 -5 121 -4 127 7 5 7 9 43 9 79 0 128 8
155 62 215 27 29 47 58 43 63 -3 6 -19 19 -35 31 l-29 20 -43 -51z"/>
<path d="M5485 5470 c-2 -3 -53 -858 -115 -1900 -61 -1042 -113 -1904 -115
-1916 -4 -18 -10 -20 -57 -17 -29 2 -648 39 -1376 83 -728 43 -1325 80 -1327
82 -2 2 3 48 11 103 8 55 17 172 21 260 8 205 -4 275 -63 390 l-44 86 118 -7
119 -7 7 93 7 93 60 65 60 66 -30 30 -31 30 -34 -33 -34 -33 -94 6 c-51 4
-119 9 -150 12 l-58 6 0 -60 c0 -32 -3 -80 -6 -105 l-7 -46 -90 127 c-49 70
-131 181 -182 247 l-92 120 -12 115 c-16 147 -40 338 -46 370 -6 25 -5 25 61
22 110 -6 123 2 100 58 -5 12 13 27 71 59 43 24 116 68 162 98 46 30 89 52 96
49 9 -3 11 -22 8 -69 l-6 -65 54 -6 c115 -11 259 -17 260 -9 0 4 4 58 8 120 7
110 7 111 44 152 20 23 37 45 37 49 0 5 -13 20 -28 35 l-28 27 -34 -35 c-31
-32 -39 -35 -91 -35 -31 0 -78 3 -104 7 l-47 6 6 69 c3 37 9 100 12 139 l7 71
128 -7 129 -7 0 44 c0 25 3 73 6 107 7 59 10 65 76 138 l68 77 -30 30 -30 30
-58 -57 c-32 -31 -65 -57 -75 -57 -28 0 -177 73 -177 86 0 20 -41 44 -76 44
-18 0 -51 9 -75 19 l-43 20 -13 -32 c-15 -34 -11 -57 10 -57 8 0 27 -16 42
-36 l28 -37 -17 -166 c-22 -211 -52 -387 -74 -430 -15 -28 -34 -41 -137 -86
-176 -77 -303 -115 -407 -122 -81 -6 -98 11 -52 50 25 22 29 33 32 93 2 48 -3
91 -17 139 -13 46 -16 75 -10 86 15 28 10 58 -10 69 -25 13 -195 13 -240 0
-98 -28 -117 -110 -57 -237 19 -39 51 -89 71 -112 34 -37 60 -102 47 -115 -3
-4 -21 -6 -41 -6 -28 0 -43 -9 -82 -49 -45 -47 -89 -136 -89 -182 0 -11 -26
-98 -59 -192 -74 -216 -105 -339 -97 -382 8 -42 82 -146 189 -266 l86 -97 -31
-6 c-42 -8 -92 -64 -108 -121 -7 -26 -13 -80 -13 -119 1 -164 50 -286 165
-411 134 -145 147 -175 159 -360 4 -71 11 -142 14 -157 7 -24 4 -27 -26 -32
-511 -83 -699 -140 -749 -229 -24 -43 0 -74 96 -123 269 -135 1013 -226 2091
-255 905 -25 1852 23 2483 128 333 55 515 116 573 194 18 25 18 28 3 57 -20
39 -81 75 -185 111 -44 14 -83 29 -86 33 -4 3 9 32 29 62 111 174 156 304 156
455 1 266 64 412 267 616 82 82 107 115 141 185 61 123 84 222 85 355 1 156
-32 234 -116 276 -188 96 -557 -129 -726 -442 -38 -71 -60 -141 -111 -359 -12
-52 -26 -102 -32 -110 -12 -19 -45 -162 307 1340 170 721 306 1312 304 1314
-2 2 -95 26 -207 52 l-203 48 6 55 c3 31 8 71 11 89 4 26 2 32 -13 33 -10 0
-71 6 -136 13 -65 6 -120 10 -122 6z m-4025 -2171 c14 -234 20 -281 36 -275 9
3 14 -15 19 -70 4 -41 5 -77 3 -79 -9 -9 -107 131 -137 195 -35 73 -38 113
-15 189 22 75 75 213 80 208 3 -2 9 -78 14 -168z m4476 -245 c-14 -38 -25 -64
-25 -58 -1 15 40 136 45 131 2 -2 -7 -35 -20 -73z m180 -78 c-38 -90 -78 -170
-62 -126 22 65 92 229 98 230 4 0 -12 -47 -36 -104z m-228 -84 c-6 -29 -13
-50 -16 -47 -2 2 1 27 8 55 7 28 14 49 16 47 3 -2 -1 -27 -8 -55z m5 -249 c10
-18 21 -33 25 -33 9 0 26 26 84 135 50 94 67 112 22 24 -14 -28 -24 -53 -22
-55 7 -6 131 56 166 83 18 14 35 23 38 20 11 -11 -191 -121 -206 -112 -3 2
-25 -29 -49 -68 -44 -75 -162 -229 -169 -222 -3 2 13 24 35 49 22 25 52 63 67
85 l28 40 -26 53 c-21 43 -26 64 -24 122 l1 71 7 -80 c3 -44 14 -94 23 -112z
m-3669 -229 c39 -59 55 -163 63 -401 l6 -203 -124 5 c-68 3 -147 8 -176 11
l-52 5 4 42 c2 23 7 83 10 132 l6 90 -48 41 -48 42 -3 306 -4 306 169 -168
c93 -92 182 -186 197 -208z m-711 -78 c20 -39 29 -60 19 -46 -9 14 -45 52 -79
86 -60 57 -63 63 -62 105 l2 44 6 -49 c6 -38 15 -55 40 -78 18 -16 35 -27 37
-25 3 2 0 24 -5 48 -6 24 -10 78 -9 119 1 72 1 71 8 -29 7 -91 12 -112 43
-175z m4104 152 c-3 -8 -6 -5 -6 6 -1 11 2 17 5 13 3 -3 4 -12 1 -19z m-10
-140 c-2 -24 -4 -5 -4 42 0 47 2 66 4 43 2 -24 2 -62 0 -85z m-4026 2 c-5 -25
-9 -35 -10 -24 -1 28 11 92 16 79 1 -6 -1 -30 -6 -55z m4224 45 l40 -15 -41 5
c-40 6 -41 6 -115 -77 -105 -116 -132 -152 -184 -243 -25 -44 -45 -75 -45 -69
0 15 90 164 128 211 19 24 29 48 27 63 -1 14 0 17 2 8 2 -10 7 -18 11 -17 5 0
137 143 137 148 0 0 18 -6 40 -14z m93 -22 c-10 -2 -26 -2 -35 0 -10 3 -2 5
17 5 19 0 27 -2 18 -5z m130 0 c-10 -2 -26 -2 -35 0 -10 3 -2 5 17 5 19 0 27
-2 18 -5z m-4435 -155 c25 -44 17 -43 -16 3 -16 21 -22 37 -15 34 7 -3 21 -19
31 -37z m7 -113 c14 -8 21 -14 15 -14 -5 0 -21 6 -35 14 -14 8 -20 14 -15 14
6 0 21 -6 35 -14z m307 -172 c-2 -21 -4 -4 -4 37 0 41 2 58 4 38 2 -21 2 -55
0 -75z m3523 -34 c-16 -40 -29 -68 -30 -62 0 16 51 145 56 140 2 -2 -10 -37
-26 -78z m403 44 c-18 -2 -48 -2 -65 0 -18 2 -4 4 32 4 36 0 50 -2 33 -4z
m-140 -10 c-23 -2 -64 -2 -90 0 -26 2 -7 3 42 3 50 0 71 -1 48 -3z m-170 -14
c-17 -5 -41 -21 -52 -35 -12 -15 -21 -22 -21 -16 0 18 60 62 83 61 16 -1 14
-3 -10 -10z m-3626 -51 c-3 -8 -6 -5 -6 6 -1 11 2 17 5 13 3 -3 4 -12 1 -19z
m7 -113 c4 -11 -2 -4 -13 16 -13 24 -18 44 -13 60 6 21 7 19 13 -16 3 -22 9
-49 13 -60z m35 -82 c11 -29 19 -53 16 -53 -5 0 -28 52 -40 91 -13 40 2 17 24
-38z m334 -9 c54 -9 49 -34 -7 -34 -35 0 -45 4 -49 20 -6 22 -1 23 56 14z
m184 -20 c-3 -3 -12 -4 -19 -1 -8 3 -5 6 6 6 11 1 17 -2 13 -5z"/>
<path d="M3030 5296 c0 -34 0 -35 53 -40 28 -3 97 -8 152 -11 120 -6 1613 -93
1670 -97 40 -3 40 -2 43 35 2 20 0 37 -5 37 -4 0 -154 9 -333 20 -1019 62
-1502 90 -1539 90 -40 0 -41 -1 -41 -34z"/>
<path d="M3020 5121 c0 -39 1 -41 32 -41 37 0 1375 -78 1435 -83 l41 -4 4 38
c3 36 2 39 -22 39 -14 0 -90 5 -170 10 -80 5 -372 23 -650 39 -278 17 -542 33
-587 37 l-83 6 0 -41z"/>
<path d="M2994 4721 c-7 -8 -4 -71 4 -71 6 0 1212 -71 1635 -97 l107 -6 0 36
c0 35 -1 36 -42 41 -24 3 -88 8 -143 11 -55 3 -406 23 -780 45 -374 22 -702
41 -728 42 -27 2 -51 1 -53 -1z"/>
<path d="M2980 4515 c0 -28 4 -35 23 -39 12 -3 422 -28 912 -55 490 -28 902
-53 918 -56 26 -4 27 -3 27 35 0 22 -3 40 -7 40 -5 0 -154 9 -333 20 -856 52
-1500 90 -1519 90 -17 0 -21 -6 -21 -35z"/>
<path d="M2958 4080 c-3 -35 -1 -40 18 -40 11 0 439 -25 950 -55 511 -30 935
-53 942 -50 6 2 12 18 12 34 0 38 5 37 -235 50 -428 24 -1555 91 -1616 96
l-67 6 -4 -41z"/>
<path d="M2947 3903 c-4 -20 -4 -39 -2 -41 5 -5 -5 -5 960 -62 369 -22 687
-40 708 -40 36 0 37 1 37 39 l0 40 -52 5 c-29 3 -93 8 -143 11 -1091 65 -1443
85 -1470 85 -30 0 -33 -3 -38 -37z"/>
<path d="M2705 3635 l-50 -55 -125 9 c-69 5 -126 8 -127 7 -1 -1 -21 -310 -19
-312 1 -1 71 -5 157 -9 l156 -7 7 119 c7 115 8 119 39 153 18 19 43 47 57 63
l24 27 -29 30 c-16 17 -31 30 -34 29 -3 0 -28 -25 -56 -54z"/>
<path d="M2920 3472 l0 -38 738 -43 c405 -24 770 -46 810 -49 l73 -5 -3 39 -3
39 -130 8 c-71 4 -430 25 -797 47 -368 22 -672 40 -678 40 -5 0 -10 -17 -10
-38z"/>
<path d="M2910 3297 l0 -35 83 -6 c45 -3 197 -13 337 -21 140 -9 518 -31 839
-50 321 -19 601 -35 622 -35 38 0 39 1 39 34 l0 34 -62 6 c-70 7 -1519 93
-1725 103 l-133 6 0 -36z"/>
<path d="M2885 2869 c-4 -17 -4 -33 -1 -37 4 -3 104 -11 224 -18 119 -7 525
-31 902 -53 377 -22 708 -42 737 -45 l51 -4 7 35 c3 19 5 36 3 38 -2 2 -163
13 -358 24 -914 55 -1517 91 -1537 91 -16 0 -23 -8 -28 -31z"/>
<path d="M2876 2713 c-12 -31 -6 -63 12 -63 9 0 331 -18 715 -41 384 -23 700
-39 702 -37 3 2 8 18 11 35 l6 31 -53 6 c-30 3 -331 22 -669 41 -338 19 -638
37 -667 39 -39 3 -53 1 -57 -11z"/>
</g>
</svg>
